<?xml version="1.0" encoding="utf-8"?>
<!-- Generator: Adobe Illustrator 21.0.0, SVG Export Plug-In . SVG Version: 6.00 Build 0)  -->
<svg version="1.1" id="图层_1" xmlns="http://www.w3.org/2000/svg" xmlns:xlink="http://www.w3.org/1999/xlink" x="0px" y="0px"
	 viewBox="0 0 300 300" style="enable-background:new 0 0 300 300;" xml:space="preserve">
<style type="text/css">
	.st0{fill:#2E9AD0;}
	.st1{fill:#FFFFFF;}
</style>
<g>
	<path class="st0" d="M179.9,219.9c-1.1,0-2,0.4-2.8,1.1s-1.1,1.7-1.1,2.8v24.9c0,1.1,0.4,2,1.1,2.8s1.7,1.1,2.8,1.1
		c1.1,0,2-0.4,2.8-1.1c0.8-0.8,1.2-1.7,1.2-2.8v-24.9c0-1.1-0.4-2-1.2-2.8C181.9,220.2,181,219.9,179.9,219.9z"/>
	<polygon class="st0" points="145.6,182.2 145.9,57.1 94.6,142.2 	"/>
	<path class="st0" d="M144.4,220.6h-4.1v14.5h4.1c1.1,0,2-0.4,2.8-1.2c0.8-0.8,1.1-1.7,1.1-2.8v-6.6
		C148.3,221.9,147,220.6,144.4,220.6z"/>
	<path class="st0" d="M149.5,10C71.4,10,8,73.4,8,151.5S71.4,293,149.5,293S291,229.6,291,151.5S227.6,10,149.5,10z M120.5,259.1
		h-18.7v-45.4h6.9v38.6h11.8V259.1z M148.9,259.1l-4.2-17.1c-0.2,0-0.4,0-0.6,0h-4v17.1h-6.9v-45.4h10.8c3.8,0,6.6,1.1,8.4,3.2
		c1.6,1.8,2.4,4.4,2.4,7.7v6.6c0,3.2-1.2,5.9-3.7,8.2l5.1,19.8H148.9z M192.1,261.6c-3.4,0-5.8-1.1-7-3.2c-1.5,0.8-3.2,1.2-5,1.2
		c-3,0-5.6-1.1-7.7-3.2c-2.1-2.1-3.2-4.7-3.2-7.7v-24.8c0-3,1.1-5.6,3.2-7.7c2.1-2.1,4.7-3.2,7.7-3.2c3,0,5.6,1.1,7.7,3.2
		s3.2,4.7,3.2,7.7v24.8c0,2-0.5,3.8-1.5,5.4c0.6,0.7,1.5,1.1,2.6,1.1V261.6z M150.1,197.4l-68.2-54.6l68.2-108.5L219,142.8
		L150.1,197.4z"/>
	<polygon class="st0" points="206.4,142.2 155,57.1 155.3,182.2 	"/>
</g>
<g>
	<g>
		<g>
			<path class="st1" d="M150.5,299.3c-82.2,0-148.8-66.6-148.8-148.8S68.3,1.7,150.5,1.7s148.8,66.6,148.8,148.8
				S232.3,299.3,150.5,299.3z M150.5,11.5c-76.7,0-139.1,62.4-139.1,139.1s62.4,139.1,139.1,139.1s139.1-62.4,139.1-139.1
				S227.1,11.5,150.5,11.5z"/>
		</g>
	</g>
</g>
</svg>
