<?xml version="1.0" encoding="utf-8"?>
<!-- Generator: Adobe Illustrator 21.0.0, SVG Export Plug-In . SVG Version: 6.00 Build 0)  -->
<svg version="1.1" id="图层_1" xmlns="http://www.w3.org/2000/svg" xmlns:xlink="http://www.w3.org/1999/xlink" x="0px" y="0px"
	 viewBox="0 0 300 300" style="enable-background:new 0 0 300 300;" xml:space="preserve">
<style type="text/css">
	.st0{fill:#47BA32;}
	.st1{fill:#FFFFFF;}
</style>
<g>
	<polygon class="st0" points="145.6,182.2 145.9,57.1 94.6,142.2 	"/>
	<path class="st0" d="M144.4,220.6h-4.1v14.5h4.1c1.1,0,2-0.4,2.8-1.2s1.1-1.7,1.1-2.8v-6.6C148.3,221.9,147,220.6,144.4,220.6z"/>
	<polygon class="st0" points="206.4,142.2 155,57.1 155.3,182.2 	"/>
	<path class="st0" d="M150.5,8C71.8,8,8,71.8,8,150.5S71.8,293,150.5,293S293,229.2,293,150.5S229.2,8,150.5,8z M120.5,259.1h-18.7
		v-45.4h6.9v38.6h11.8C120.5,252.3,120.5,259.1,120.5,259.1z M148.9,259.1l-4.2-17.1c-0.2,0-0.4,0-0.6,0h-4v17.1h-6.9v-45.4H144
		c3.8,0,6.6,1.1,8.4,3.2c1.6,1.8,2.4,4.4,2.4,7.7v6.6c0,3.2-1.2,5.9-3.7,8.2l5.1,19.8h-7.3V259.1z M194.1,259.1h-7.4l-9.4-29.1v29.1
		h-6.9v-45.5h7.7l9.1,30.6v-30.6h6.9L194.1,259.1L194.1,259.1z M150.1,197.4l-68.2-54.6l68.2-108.5L219,142.8L150.1,197.4z"/>
</g>
<g>
	<g>
		<g>
			<path class="st1" d="M150.5,299.3c-82.2,0-148.8-66.6-148.8-148.8S68.3,1.7,150.5,1.7s148.8,66.6,148.8,148.8
				S232.3,299.3,150.5,299.3z M150.5,11.5c-76.7,0-139.1,62.4-139.1,139.1s62.4,139.1,139.1,139.1s139.1-62.4,139.1-139.1
				S227.1,11.5,150.5,11.5z"/>
		</g>
	</g>
</g>
</svg>
